# Blender v2.64 (sub 0) OBJ File: 'demotrack.blend'
# www.blender.org
v -2.662259 -1.000000 -1.000000
v -2.662259 -1.000000 1.000000
v -4.662260 -1.000000 1.000000
v -4.662259 -1.000000 -1.000000
v -2.662259 1.000000 -0.999999
v -2.662260 1.000000 1.000001
v -4.662260 1.000000 1.000000
v -4.662259 1.000000 -1.000000
v -2.662259 -1.000000 -2.883071
v -4.662259 -1.000000 -2.883071
v -2.662258 1.000000 -2.883070
v -4.662259 1.000000 -2.883071
v -0.904119 -1.000000 -1.000000
v -0.904119 -1.000000 1.000000
v -0.904119 1.000000 -0.999999
v -0.904120 1.000000 1.000001
v -0.904119 -1.000000 -2.883070
v -0.904119 1.000000 -2.883070
v 0.839801 -1.000000 -0.999999
v 0.839801 -1.000000 1.000001
v 0.839802 1.000000 -0.999999
v 0.839800 1.000000 1.000001
v 0.839802 -1.000000 -2.883070
v 0.839802 1.000000 -2.883069
v 2.553893 -1.000001 -0.999998
v 2.553893 -1.000001 1.000001
v 2.553894 0.999999 -0.999998
v 2.553892 0.999999 1.000002
v 2.553894 -1.000000 -2.883069
v 2.553894 1.000000 -2.883069
v 4.535111 -1.000001 -0.999998
v 4.535111 -1.000001 1.000002
v 4.535112 0.999999 -0.999997
v 4.535111 0.999999 1.000003
v 4.535112 -1.000001 -2.883069
v 4.535112 0.999999 -2.883068
vt 0.000000 0.000000
vt 1.000000 0.000000
vt 1.000000 1.000000
vt 0.000000 1.000000
vn 0.000000 -1.000000 0.000000
vn 0.000000 1.000000 0.000000
vn -0.000000 -0.000000 1.000000
vn -1.000000 0.000000 -0.000000
vn 0.000000 0.000000 -1.000000
vn 1.000000 -0.000000 0.000000
s off
f 1/1/1 2/2/1 3/3/1
f 1/1/1 3/3/1 4/4/1
f 5/1/2 8/2/2 7/3/2
f 5/1/2 7/3/2 6/4/2
f 1/3/1 9/4/1 17/1/1
f 1/3/1 17/1/1 13/2/1
f 2/1/3 6/2/3 7/3/3
f 2/1/3 7/3/3 3/4/3
f 3/1/4 7/2/4 8/3/4
f 3/1/4 8/3/4 4/4/4
f 4/1/4 8/2/4 12/3/4
f 4/1/4 12/3/4 10/4/4
f 11/1/5 9/2/5 10/3/5
f 11/1/5 10/3/5 12/4/5
f 1/1/1 4/2/1 10/3/1
f 1/1/1 10/3/1 9/4/1
f 11/1/2 12/2/2 8/3/2
f 11/1/2 8/3/2 5/4/2
f 5/1/2 6/2/2 16/3/2
f 5/1/2 16/3/2 15/4/2
f 17/1/5 18/2/5 24/3/5
f 17/1/5 24/3/5 23/4/5
f 23/1/1 19/2/1 13/3/1
f 23/1/1 13/3/1 17/4/1
f 14/1/3 16/2/3 6/3/3
f 14/1/3 6/3/3 2/4/3
f 2/3/1 1/4/1 13/1/1
f 2/3/1 13/1/1 14/2/1
f 9/1/5 11/2/5 18/3/5
f 9/1/5 18/3/5 17/4/5
f 15/1/2 18/2/2 11/3/2
f 15/1/2 11/3/2 5/4/2
f 27/1/2 30/2/2 24/3/2
f 27/1/2 24/3/2 21/4/2
f 21/1/2 22/2/2 28/3/2
f 21/1/2 28/3/2 27/4/2
f 19/1/1 20/2/1 14/3/1
f 19/1/1 14/3/1 13/4/1
f 15/1/2 16/2/2 22/3/2
f 15/1/2 22/3/2 21/4/2
f 21/1/2 24/2/2 18/3/2
f 21/1/2 18/3/2 15/4/2
f 20/1/3 22/2/3 16/3/3
f 20/1/3 16/3/3 14/4/3
f 31/1/1 32/2/1 26/3/1
f 31/1/1 26/3/1 25/4/1
f 29/1/5 30/2/5 36/3/5
f 29/1/5 36/3/5 35/4/5
f 26/1/3 28/2/3 22/3/3
f 26/1/3 22/3/3 20/4/3
f 29/1/1 25/2/1 19/3/1
f 29/1/1 19/3/1 23/4/1
f 23/1/5 24/2/5 30/3/5
f 23/1/5 30/3/5 29/4/5
f 25/1/1 26/2/1 20/3/1
f 25/1/1 20/3/1 19/4/1
f 31/1/6 33/2/6 34/3/6
f 31/1/6 34/3/6 32/4/6
f 35/1/6 36/2/6 33/3/6
f 35/1/6 33/3/6 31/4/6
f 27/1/2 28/2/2 34/3/2
f 27/1/2 34/3/2 33/4/2
f 33/1/2 36/2/2 30/3/2
f 33/1/2 30/3/2 27/4/2
f 32/1/3 34/2/3 28/3/3
f 32/1/3 28/3/3 26/4/3
f 35/1/1 31/2/1 25/3/1
f 35/1/1 25/3/1 29/4/1
