# Blender v2.64 (sub 0) OBJ File: 'testcube.blend'
# www.blender.org
v 1.000000 -1.000000 -1.000000
v 1.000000 -1.000000 1.000000
v -1.000000 -1.000000 1.000000
v -1.000000 -1.000000 -1.000000
v 1.000000 1.000000 -1.000000
v 1.000000 1.000000 1.000001
v -1.000000 1.000000 1.000000
v -1.000000 1.000000 -1.000000
vt 0.865749 0.252775
vt 0.411050 0.137771
vt 0.149536 0.297583
vt 0.570760 0.387630
vt 0.874628 0.774728
vt 0.566829 0.852216
vt 0.127139 0.796439
vt 0.398253 0.703298
vn 0.000000 -1.000000 0.000000
vn 0.000000 1.000000 0.000000
vn 1.000000 0.000000 0.000000
vn -0.000000 -0.000000 1.000000
vn -1.000000 -0.000000 -0.000000
vn 0.000000 0.000000 -1.000000
s off
f 1/1/1 2/2/1 3/3/1
f 1/1/1 3/3/1 4/4/1
f 5/5/2 8/6/2 7/7/2
f 5/5/2 7/7/2 6/8/2
f 1/1/3 5/5/3 6/8/3
f 1/1/3 6/8/3 2/2/3
f 2/2/4 6/8/4 7/7/4
f 2/2/4 7/7/4 3/3/4
f 3/3/5 7/7/5 8/6/5
f 3/3/5 8/6/5 4/4/5
f 5/5/6 1/1/6 4/4/6
f 5/5/6 4/4/6 8/6/6
