# Blender v2.64 (sub 0) OBJ File: 'lake.blend'
# www.blender.org
o Cube
v -1.000000 0.000189 -0.000000
v -0.000001 0.000189 1.000000
v 0.000000 0.000189 -1.000000
v 1.000000 0.000189 0.000001
v -0.000000 0.000189 0.000000
v -0.911167 0.000189 0.455583
v -0.455584 0.000189 0.911166
v -0.455583 0.000189 -0.911166
v -0.911166 0.000189 -0.455583
v 0.455584 0.000189 -0.911166
v 0.911167 0.000189 -0.455583
v 0.455583 0.000189 0.911167
v 0.911166 0.000189 0.455584
vt 0.500002 3.426470
vt -0.833250 3.166502
vt 0.500000 0.500000
vt -2.166501 1.833251
vt -2.426470 0.500000
vt -2.166501 -0.833249
vt 0.499998 -2.426470
vt -0.833251 -2.166500
vt 1.833252 3.166502
vt 3.166502 1.833250
vt 3.426470 0.499998
vt 3.166502 -0.833252
vt 1.833250 -2.166502
vn 0.000000 1.000000 0.000000
s off
f 3/1/1 8/2/1 5/3/1
f 8/2/1 9/4/1 5/3/1
f 9/4/1 1/5/1 5/3/1
f 5/3/1 1/5/1 6/6/1
f 5/3/1 6/6/1 2/7/1
f 6/6/1 7/8/1 2/7/1
f 10/9/1 3/1/1 5/3/1
f 10/9/1 5/3/1 11/10/1
f 5/3/1 4/11/1 11/10/1
f 4/11/1 5/3/1 2/7/1
f 4/11/1 2/7/1 13/12/1
f 2/7/1 12/13/1 13/12/1
